<?xml version="1.0" standalone="no"?><!DOCTYPE svg PUBLIC "-//W3C//DTD SVG 1.1//EN" "http://www.w3.org/Graphics/SVG/1.1/DTD/svg11.dtd"><svg t="1595396263507" class="icon" viewBox="0 0 1024 1024" version="1.1" xmlns="http://www.w3.org/2000/svg" p-id="5041" xmlns:xlink="http://www.w3.org/1999/xlink" width="200" height="200"><defs><style type="text/css"></style></defs><path d="M994.730667 294.954667c-183.936 0-350.677333 66.304-475.648 173.824C394.197333 361.130667 227.413333 294.954667 43.52 294.954667v539.477333c183.936 0 350.677333 66.261333 475.648 173.781333 125.013333-107.52 291.712-173.781333 475.648-173.781333V294.954667h-0.085333z m-475.562667 0a147.370667 147.370667 0 0 0 147.2-147.114667 147.370667 147.370667 0 0 0-147.2-147.2 147.370667 147.370667 0 0 0-147.029333 147.285333 147.072 147.072 0 0 0 147.029333 147.029334z" p-id="5042"></path></svg>