<?xml version="1.0" standalone="no"?><!DOCTYPE svg PUBLIC "-//W3C//DTD SVG 1.1//EN" "http://www.w3.org/Graphics/SVG/1.1/DTD/svg11.dtd"><svg t="1595397429832" class="icon" viewBox="0 0 1024 1024" version="1.1" xmlns="http://www.w3.org/2000/svg" p-id="28010" xmlns:xlink="http://www.w3.org/1999/xlink" width="200" height="200"><defs><style type="text/css"></style></defs><path d="M342.4 192c0 94.4 76.8 171.2 171.2 171.2S683.2 286.4 683.2 192 608 20.8 513.6 20.8 342.4 97.6 342.4 192zM683.2 704c0 94.4 76.8 171.2 171.2 171.2S1024 798.4 1024 704s-76.8-171.2-171.2-171.2S683.2 609.6 683.2 704zM0 704c0 94.4 76.8 171.2 171.2 171.2S340.8 798.4 340.8 704s-76.8-171.2-171.2-171.2S0 609.6 0 704zM129.6 363.2c0 24 19.2 43.2 43.2 43.2s43.2-19.2 43.2-43.2c0-24-19.2-43.2-43.2-43.2s-43.2 19.2-43.2 43.2zM811.2 363.2c0 24 19.2 43.2 43.2 43.2s43.2-19.2 43.2-43.2c0-24-19.2-43.2-43.2-43.2s-43.2 19.2-43.2 43.2zM470.4 960c0 24 19.2 43.2 43.2 43.2s43.2-19.2 43.2-43.2-19.2-43.2-43.2-43.2-43.2 19.2-43.2 43.2z" p-id="28011"></path></svg>