<?xml version="1.0" standalone="no"?><!DOCTYPE svg PUBLIC "-//W3C//DTD SVG 1.1//EN" "http://www.w3.org/Graphics/SVG/1.1/DTD/svg11.dtd"><svg t="1595397054353" class="icon" viewBox="0 0 1024 1024" version="1.1" xmlns="http://www.w3.org/2000/svg" p-id="13689" xmlns:xlink="http://www.w3.org/1999/xlink" width="200" height="200"><defs><style type="text/css"></style></defs><path d="M715.0592 562.2272c107.96032 0 196.3008 90.07104 196.3008 200.17152C911.36 872.48896 823.02976 962.56 715.0592 962.56c-107.97056 0-196.3008-90.08128-196.3008-200.16128s88.2688-200.17152 196.3008-200.17152zM745.73824 61.44c35.40992 0.1024 64.1024 29.35808 64.2048 65.46432v404.92032c-29.44-15.01184-63.7952-20.0192-98.1504-20.0192-137.41056 0-245.38112 110.09024-245.38112 250.20416 0 55.04 19.64032 110.10048 49.08032 150.1184H187.0848c-35.42016-0.1024-64.1024-29.34784-64.2048-65.46432V126.90432c0.1024-36.10624 28.78464-65.35168 64.2048-65.46432z m65.92512 795.42272H615.75168c-6.5024 0-11.78624 5.38624-11.78624 12.02176 0 6.63552 5.28384 12.02176 11.78624 12.02176h195.91168c6.51264 0 11.78624-5.38624 11.78624-12.02176 0-6.63552-5.2736-12.02176-11.78624-12.02176z m-96.6144-217.088c-27.78112 0-52.14208 18.93376-59.52512 46.24384-7.3728 27.31008 4.03456 56.28928 27.904 70.79936 4.73088 3.50208 6.912 9.59488 5.50912 15.39072a14.51008 14.51008 0 0 1-11.88864 11.008H612.5568a11.69408 11.69408 0 0 0-11.54048 11.76576v35.2256a11.6736 11.6736 0 0 0 11.54048 11.76576h204.96384a11.6736 11.6736 0 0 0 11.54048-11.76576l-0.04096-35.23584a11.6736 11.6736 0 0 0-11.54048-11.76576h-61.1328a1.9456 1.9456 0 0 0-0.74752-0.16384 14.44864 14.44864 0 0 1-13.57824-9.8816 14.88896 14.88896 0 0 1 4.64896-16.34304c23.8592-14.51008 35.2768-43.48928 27.89376-70.79936-7.3728-27.31008-31.744-46.2336-59.52512-46.2336z m-224.1024-207.2576H297.70752c-14.73536 0-27.5968 14.15168-27.5968 29.17376 0 12.2368 9.80992 31.25248 27.5968 31.25248h196.3008c11.6736 0 24.53504-15.2064 24.53504-30.21824s-12.87168-30.208-27.5968-30.208z m144.1792-115.68128H297.69728c-14.73536 0.0512-27.5968 15.19616-27.5968 30.208 0 15.02208 12.86144 30.22848 27.5968 30.22848h337.408c14.72512 0 27.5968-15.21664 27.5968-30.21824 0-15.01184-12.87168-30.21824-27.5968-30.21824z m0-115.67104H297.69728c-14.73536 0-27.5968 15.21664-27.5968 30.21824 0 15.01184 12.86144 30.21824 27.5968 30.21824h337.408c14.72512 0 27.5968-15.19616 27.5968-30.208 0-15.02208-12.87168-30.22848-27.5968-30.22848z" p-id="13690"></path></svg>