<?xml version="1.0" standalone="no"?><!DOCTYPE svg PUBLIC "-//W3C//DTD SVG 1.1//EN" "http://www.w3.org/Graphics/SVG/1.1/DTD/svg11.dtd"><svg t="1595397974640" class="icon" viewBox="0 0 1024 1024" version="1.1" xmlns="http://www.w3.org/2000/svg" p-id="54895" xmlns:xlink="http://www.w3.org/1999/xlink" width="200" height="200"><defs><style type="text/css"></style></defs><path d="M829.498302 324.194623a182.345257 182.345257 0 0 0-136.04799 64.782049L362.999301 188.089758v-6.483893a181.435237 181.435237 0 1 0-362.870473 0 175.349478 175.349478 0 0 0 116.653188 168.467452v382.322151a169.149967 169.149967 0 0 0-64.782048 129.564097 162.097312 162.097312 0 0 0 324.194623 0 126.492779 126.492779 0 0 0-6.483892-45.501l324.194623-194.403022a182.345257 182.345257 0 0 0 136.04799 64.782049 181.435237 181.435237 0 0 0 0-362.870474z m-492.434571 434.136415a160.391024 160.391024 0 0 0-123.13708-58.298156 58.411908 58.411908 0 0 0-32.419463 6.483892V362.870473a192.981115 192.981115 0 0 0 168.467452-110.169295l310.999334 187.691624a191.729838 191.729838 0 0 0-12.967785 64.782048 230.235059 230.235059 0 0 0 12.967785 64.782048l-324.194624 187.691625z" fill="#676767" p-id="54896"></path></svg>