<?xml version="1.0" standalone="no"?><!DOCTYPE svg PUBLIC "-//W3C//DTD SVG 1.1//EN" "http://www.w3.org/Graphics/SVG/1.1/DTD/svg11.dtd"><svg t="1595397598542" class="icon" viewBox="0 0 1024 1024" version="1.1" xmlns="http://www.w3.org/2000/svg" p-id="37229" xmlns:xlink="http://www.w3.org/1999/xlink" width="200" height="200"><defs><style type="text/css"></style></defs><path d="M133.51 595.5a35 35 0 0 1-35-34.84l-1-230a35 35 0 0 1 34.84-35.15h0.16a35 35 0 0 1 35 34.84l1 230a35 35 0 0 1-34.84 35.15zM803.38 791.08c-27 0-54.14-10.82-77.75-31.28C596.53 647.92 313 622.92 257.47 619A45.8 45.8 0 0 1 215 573.49v-278A45.8 45.8 0 0 1 257.47 250c55.53-3.92 339.06-28.92 468.16-140.8 28-24.25 60.91-35 92.73-30.16 32.71 4.94 62 25.75 82.46 58.6 42.92 68.9 64.68 168.78 64.68 296.86s-21.76 228-64.68 296.86C880.36 764.21 851.07 785 818.36 790a100.36 100.36 0 0 1-14.98 1.08zM446.41 863.28a272.39 272.39 0 0 1-51.53-39.59C365.76 795 351 766.31 351 738.5a52.5 52.5 0 0 0-105 0c0 57.08 26.8 113.18 77.5 162.23 34.09 33 67.56 51.94 72.57 54.7a52.5 52.5 0 1 0 50.34-92.15z" fill="#333333" p-id="37230"></path></svg>