<?xml version="1.0" standalone="no"?><!DOCTYPE svg PUBLIC "-//W3C//DTD SVG 1.1//EN" "http://www.w3.org/Graphics/SVG/1.1/DTD/svg11.dtd"><svg t="1595390436086" class="icon" viewBox="0 0 1024 1024" version="1.1" xmlns="http://www.w3.org/2000/svg" p-id="2745" xmlns:xlink="http://www.w3.org/1999/xlink" width="200" height="200"><defs><style type="text/css"></style></defs><path d="M630.272 682.449455H253.44v89.18109h376.832v-89.18109z m0-193.629091H253.44v89.320727h376.832V488.727273zM488.168727 297.425455H253.44v89.18109h234.728727V297.425455z m64-178.967273H94.859636v816.407273h693.992728v-415.185455h94.952727v428.218182c-0.093091 42.030545-36.352 76.101818-81.128727 76.101818H81.082182C36.352 1024 0.093091 989.928727 0 947.898182v-842.472727C0.046545 63.394909 36.352 29.323636 81.082182 29.323636h471.179636v89.134546h-0.093091z m465.594182 21.224727L875.799273 5.725091a15.592727 15.592727 0 0 0-15.266909-5.399273 14.661818 14.661818 0 0 0-11.543273 10.891637l-19.362909 48.965818a74.007273 74.007273 0 0 1-31.557818 33.512727l-180.037819 87.505455a15.965091 15.965091 0 1 0-4.747636 27.927272L677.794909 269.963636l-105.565091 142.754909 155.880727-95.278545 74.007273 69.911273a19.037091 19.037091 0 0 0 30.580364-3.863273l98.862545-163.653818c8.843636-13.125818 20.992-23.924364 35.421091-31.464727l45.986909-21.224728a16.337455 16.337455 0 0 0 10.845091-12.427636 15.546182 15.546182 0 0 0-6.004363-15.034182z" fill="#000000" p-id="2746"></path></svg>