<?xml version="1.0" standalone="no"?><!DOCTYPE svg PUBLIC "-//W3C//DTD SVG 1.1//EN" "http://www.w3.org/Graphics/SVG/1.1/DTD/svg11.dtd"><svg t="1595397334618" class="icon" viewBox="0 0 1232 1024" version="1.1" xmlns="http://www.w3.org/2000/svg" p-id="25752" xmlns:xlink="http://www.w3.org/1999/xlink" width="240.625" height="200"><defs><style type="text/css"></style></defs><path d="M1165.119 123.098v825.121c0 20.327-14.41 34.737-34.737 34.737h-147.625c-20.312 0-34.722-14.41-34.722-34.737v-825.121c0-20.009 6.037-26.061 26.046-26.061h164.978c20.024 0 26.061 6.052 26.061 26.061zM1130.382 948.219v-825.121h-147.625v825.121h147.625z" p-id="25753"></path><path d="M1130.382 123.098v825.121h-147.625v-825.121h147.625zM1099.991 270.738c0-12.162-11.832-17.353-26.063-17.353h-34.722c-14.214 0-26.063 5.191-26.063 17.353 0 12.193 11.847 17.384 26.063 17.384h34.722c14.231 0 26.063-5.191 26.063-17.384zM1099.991 357.597c0-12.162-11.832-17.369-26.063-17.369h-34.722c-14.214 0-26.063 5.206-26.063 17.369 0 12.177 11.847 17.384 26.063 17.384h34.722c14.231 0 26.063-5.206 26.063-17.384zM1099.991 444.454c0-12.162-11.832-17.369-26.063-17.369h-34.722c-14.214 0-26.063 5.206-26.063 17.369 0 12.177 11.847 17.369 26.063 17.369h34.722c14.231 0 26.063-5.191 26.063-17.369zM1099.991 526.982c0-12.177-11.832-17.384-26.063-17.384h-34.722c-14.214 0-26.063 5.206-26.063 17.384 0 12.162 11.847 17.353 26.063 17.353h34.722c14.231-0.002 26.063-5.191 26.063-17.353z" p-id="25754"></path><path d="M939.343 123.098v825.121c0 20.327-14.394 34.737-34.737 34.737h-147.61c-20.327 0-34.737-14.41-34.737-34.737v-825.121c0-20.009 6.052-26.061 26.046-26.061h164.993c20.009 0 26.046 6.052 26.046 26.061zM904.605 948.219v-825.121h-147.61v825.121h147.61z" p-id="25755"></path><path d="M904.605 123.098v825.121h-147.61v-825.121h147.61zM874.215 270.738c0-12.162-11.832-17.353-26.047-17.353h-34.737c-14.199 0-26.046 5.191-26.046 17.353 0 12.193 11.846 17.384 26.046 17.384h34.737c14.216 0 26.047-5.191 26.047-17.384zM874.215 357.597c0-12.162-11.832-17.369-26.047-17.369h-34.737c-14.199 0-26.046 5.206-26.046 17.369 0 12.177 11.846 17.384 26.046 17.384h34.737c14.216 0 26.047-5.206 26.047-17.384zM874.215 444.454c0-12.162-11.832-17.369-26.047-17.369h-34.737c-14.199 0-26.046 5.206-26.046 17.369 0 12.177 11.846 17.369 26.046 17.369h34.737c14.216 0 26.047-5.191 26.047-17.369zM874.215 526.982c0-12.177-11.832-17.384-26.047-17.384h-34.737c-14.199 0-26.046 5.206-26.046 17.384 0 12.162 11.846 17.353 26.046 17.353h34.737c14.216-0.002 26.047-5.191 26.047-17.353z" p-id="25756"></path><path d="M709.235 123.098v825.121c0 20.327-14.41 34.737-34.739 34.737h-147.625c-20.327 0-34.722-14.41-34.722-34.737v-711.553l20.628-75.193c5.281-19.3 1.042-26.724-18.244-32.021l-2.384-0.649v-5.704c0-20.009 6.037-26.061 26.046-26.061h164.978c20.011 0 26.063 6.052 26.063 26.061zM674.499 948.219v-825.121h-147.625v825.121h147.625z" p-id="25757"></path><path d="M674.499 123.098v825.121h-147.625v-825.121h147.625zM644.107 270.738c0-12.162-11.831-17.353-26.046-17.353h-34.737c-14.214 0-26.046 5.191-26.046 17.353 0 12.193 11.846 17.384 26.046 17.384h34.737c14.214 0 26.046-5.191 26.046-17.384zM644.107 357.597c0-12.162-11.831-17.369-26.046-17.369h-34.737c-14.214 0-26.046 5.206-26.046 17.369 0 12.177 11.846 17.384 26.046 17.384h34.737c14.214 0 26.046-5.206 26.046-17.384zM644.107 444.454c0-12.162-11.831-17.369-26.046-17.369h-34.737c-14.214 0-26.046 5.206-26.046 17.369 0 12.177 11.846 17.369 26.046 17.369h34.737c14.214 0 26.046-5.191 26.046-17.369zM644.107 526.982c0-12.177-11.831-17.384-26.046-17.384h-34.737c-14.214 0-26.046 5.206-26.046 17.384 0 12.162 11.846 17.353 26.046 17.353h34.737c14.214-0.002 26.046-5.191 26.046-17.353z" p-id="25758"></path><path d="M494.536 129.451c19.285 5.296 23.526 12.721 18.244 32.021l-20.628 75.193v-107.863l2.384 0.649z" p-id="25759"></path><path d="M492.151 128.803v107.863l-197.648 720.547c-5.387 19.602-23.088 29.682-42.689 24.309l-142.374-39.053c-19.586-5.387-29.666-23.072-24.294-42.689l218.261-795.725c5.296-19.3 12.736-23.541 32.021-18.244l156.725 42.992zM261.002 948.022l218.261-795.741-142.359-39.037-218.276 795.725 142.374 39.053z" p-id="25760"></path><path d="M479.265 152.282l-218.261 795.741-142.374-39.053 218.276-795.725 142.359 39.037zM410.907 286.643c3.214-11.74-6.836-19.889-20.523-23.646l-33.5-9.19c-13.718-3.757-26.498-1.871-29.727 9.853-3.214 11.74 6.82 19.889 20.538 23.661l33.5 9.19c13.687 3.742 26.483 1.871 29.712-9.869zM387.924 370.408c3.214-11.74-6.82-19.889-20.523-23.646l-33.5-9.189c-13.702-3.773-26.498-1.886-29.727 9.869-3.214 11.724 6.836 19.874 20.538 23.632l33.5 9.189c13.702 3.757 26.498 1.886 29.712-9.853zM364.942 454.172c3.229-11.74-6.805-19.889-20.523-23.661l-33.5-9.19c-13.702-3.743-26.483-1.871-29.712 9.869-3.214 11.74 6.82 19.889 20.523 23.646l33.5 9.19c13.718 3.758 26.498 1.871 29.712-9.853zM343.122 533.742c3.229-11.74-6.82-19.889-20.523-23.647l-33.5-9.189c-13.702-3.758-26.498-1.871-29.712 9.853-3.229 11.74 6.82 19.889 20.523 23.645l33.5 9.191c13.702 3.756 26.498 1.869 29.712-9.853z" p-id="25761"></path></svg>