<?xml version="1.0" standalone="no"?><!DOCTYPE svg PUBLIC "-//W3C//DTD SVG 1.1//EN" "http://www.w3.org/Graphics/SVG/1.1/DTD/svg11.dtd"><svg t="1595397137636" class="icon" viewBox="0 0 1024 1024" version="1.1" xmlns="http://www.w3.org/2000/svg" p-id="14508" xmlns:xlink="http://www.w3.org/1999/xlink" width="200" height="200"><defs><style type="text/css"></style></defs><path d="M944.64 744.96l-378.88 210.432c-29.696 16.384-78.336 16.384-108.032 0l-378.88-210.432c-29.696-16.384-29.696-43.52 0-59.904l50.176-28.16 291.328 161.792c32.768 18.432 67.584 22.016 91.136 22.016 23.552 0 58.368-3.584 91.136-22.016l291.328-161.792 50.176 27.648c30.72 16.896 30.72 43.52 0.512 60.416z m-865.28-405.504l378.88 210.432c29.696 16.384 78.336 16.384 108.032 0l378.88-210.432c29.696-16.384 29.696-43.52 0-59.904l-378.368-210.432c-29.696-16.384-78.336-16.384-108.032 0l-378.88 210.432c-30.72 16.384-30.72 43.52-0.512 59.904z m865.28 142.336l-50.176-27.648-291.328 161.792c-32.768 18.432-67.584 22.016-91.136 22.016-23.552 0-58.368-3.584-91.136-22.016L129.536 454.144l-50.176 27.648c-29.696 16.384-29.696 43.52 0 59.904l378.88 210.432c29.696 16.384 78.336 16.384 108.032 0l378.88-210.432c29.696-15.872 29.696-43.008-0.512-59.904z" p-id="14509"></path></svg>